<svg xmlns="http://www.w3.org/2000/svg" color="var(--token-de954fd2-a975-4916-8b85-2e5f2acf6b9e, rgb(255, 255, 255))" style="user-select:none;width:100%;height:100%;display:inline-block;fill:var(--token-de954fd2-a975-4916-8b85-2e5f2acf6b9e, rgb(255, 255, 255));color:var(--token-de954fd2-a975-4916-8b85-2e5f2acf6b9e, rgb(255, 255, 255));flex-shrink:0" viewBox="0 0 256 256"><path d="M78 36a42 42 0 1 0 42 42 42 42 0 0 0-42-42m0 60a18 18 0 1 1 18-18 18 18 0 0 1-18 18m100 24a42 42 0 1 0-42-42 42 42 0 0 0 42 42m0-60a18 18 0 1 1-18 18 18 18 0 0 1 18-18M78 136a42 42 0 1 0 42 42 42 42 0 0 0-42-42m0 60a18 18 0 1 1 18-18 18 18 0 0 1-18 18m100-60a42 42 0 1 0 42 42 42 42 0 0 0-42-42m0 60a18 18 0 1 1 18-18 18 18 0 0 1-18 18"/></svg>