<svg width="44" height="44" fill="none" viewBox="0 0 44 44"><circle cx="22.102" cy="21.922" r="21.117" fill="url(#a)" fill-opacity=".17"/><circle cx="22.102" cy="21.922" r="20.617" stroke="url(#b)" stroke-opacity=".4"/><path stroke="#FF4D00" stroke-linecap="round" stroke-linejoin="round" stroke-width=".75" d="M13.464 25.16h17.274m-17.274-6.474h17.274"/><circle cx="22.101" cy="21.924" r="9.717" stroke="#FF4D00" stroke-linecap="round" stroke-linejoin="round" stroke-width=".75"/><path fill="#FF4D00" d="m22.101 31.446-.268.262a.375.375 0 0 0 .536 0zm0-19.042.268-.262a.375.375 0 0 0-.536 0zm3.512 9.521a13.18 13.18 0 0 1-3.78 9.258l.536.525a13.94 13.94 0 0 0 3.994-9.783zm-3.78-9.258a13.2 13.2 0 0 1 3.78 9.258h.75c0-3.809-1.524-7.262-3.994-9.783zm-3.244 9.258c0-3.605 1.442-6.872 3.78-9.258l-.536-.525a13.94 13.94 0 0 0-3.994 9.783zm3.78 9.258a13.2 13.2 0 0 1-3.78-9.258h-.75c0 3.809 1.524 7.262 3.994 9.783z"/><defs><linearGradient id="a" x1="22.102" x2="22.102" y1=".805" y2="43.039" gradientUnits="userSpaceOnUse"><stop stop-color="#EA7900"/><stop offset="1" stop-color="#844400"/></linearGradient><linearGradient id="b" x1="22.102" x2="22.102" y1=".805" y2="43.039" gradientUnits="userSpaceOnUse"><stop stop-color="#FFB700"/><stop offset="1" stop-color="#FF4D00"/></linearGradient></defs></svg>