<svg width="44" height="43" fill="none" viewBox="0 0 44 43"><circle cx="21.997" cy="21.434" r="21.117" fill="url(#a)" fill-opacity=".17"/><circle cx="21.997" cy="21.434" r="20.617" stroke="url(#b)" stroke-opacity=".4"/><path fill="#FF4D00" stroke="#FF4D00" stroke-linejoin="round" stroke-width=".4" d="M22.008 15.643a.2.2 0 1 0-.4 0c0 1.957-.674 3.575-1.814 4.704s-2.758 1.781-4.672 1.781a.2.2 0 0 0 0 .4c1.914 0 3.533.652 4.672 1.781 1.14 1.129 1.814 2.747 1.814 4.705a.2.2 0 0 0 .4 0c0-3.807 2.85-6.486 6.485-6.486a.2.2 0 1 0 0-.4c-1.87 0-3.49-.63-4.64-1.749-1.15-1.117-1.845-2.735-1.845-4.736Z"/><path fill="#FF4D00" stroke="#FF4D00" stroke-linejoin="round" stroke-width=".2" d="M28.593 12.422a.1.1 0 1 0-.2 0c0 .941-.324 1.72-.872 2.262-.547.543-1.326.856-2.246.856a.1.1 0 1 0 0 .2c.92 0 1.699.314 2.247.857s.871 1.32.871 2.261a.1.1 0 1 0 .2 0c0-1.83 1.37-3.118 3.119-3.118a.1.1 0 0 0 0-.2c-.9 0-1.678-.303-2.232-.84-.552-.538-.887-1.316-.887-2.278Z"/><defs><linearGradient id="a" x1="21.997" x2="21.997" y1=".316" y2="42.551" gradientUnits="userSpaceOnUse"><stop stop-color="#EA7900"/><stop offset="1" stop-color="#844400"/></linearGradient><linearGradient id="b" x1="21.997" x2="21.997" y1=".316" y2="42.551" gradientUnits="userSpaceOnUse"><stop stop-color="#FFB700"/><stop offset="1" stop-color="#FF4D00"/></linearGradient></defs></svg>