<svg width="49" height="48" fill="none" viewBox="0 0 49 48"><path fill="#fff" fill-rule="evenodd" d="M14.623.14C17.183.029 17.998 0 24.514 0s7.331.028 9.9.15c2.55.112 4.294.525 5.822 1.116a11.7 11.7 0 0 1 4.247 2.765c1.34 1.332 2.156 2.672 2.747 4.266.59 1.519 1.003 3.272 1.115 5.822.113 2.56.14 3.375.14 9.89s-.027 7.332-.14 9.891c-.112 2.55-.525 4.294-1.115 5.822a11.7 11.7 0 0 1-2.766 4.247 11.7 11.7 0 0 1-4.247 2.765c-1.518.591-3.272 1.003-5.822 1.116-2.559.112-3.375.14-9.89.14s-7.332-.028-9.891-.14c-2.55-.113-4.294-.525-5.822-1.116a11.7 11.7 0 0 1-4.247-2.765c-1.34-1.331-2.156-2.672-2.775-4.257-.59-1.518-1.003-3.271-1.115-5.821C.542 31.33.515 30.516.515 24s.027-7.331.14-9.9c.112-2.55.525-4.294 1.115-5.822.62-1.575 1.435-2.915 2.775-4.247 1.332-1.34 2.672-2.156 4.257-2.775C10.32.666 12.073.253 14.623.141m9.891 11.532c-6.806 0-12.328 5.522-12.328 12.328s5.522 12.328 12.328 12.328S36.842 30.806 36.842 24 31.32 11.672 24.514 11.672m0 20.325a7.998 7.998 0 0 1 0-15.994A8 8 0 0 1 32.511 24a8 8 0 0 1-7.997 7.997M37.33 14.062a2.88 2.88 0 0 0 2.878-2.878 2.885 2.885 0 0 0-2.878-2.878 2.879 2.879 0 0 0 0 5.756" clip-rule="evenodd"/></svg>