<svg xmlns="http://www.w3.org/2000/svg" color="var(--token-de954fd2-a975-4916-8b85-2e5f2acf6b9e, rgb(255, 255, 255))" style="user-select:none;width:100%;height:100%;display:inline-block;fill:var(--token-de954fd2-a975-4916-8b85-2e5f2acf6b9e, rgb(255, 255, 255));color:var(--token-de954fd2-a975-4916-8b85-2e5f2acf6b9e, rgb(255, 255, 255));flex-shrink:0" viewBox="0 0 256 256"><path d="m225.6 62.64-88-48.17a19.91 19.91 0 0 0-19.2 0l-88 48.17A20 20 0 0 0 20 80.19v95.62a20 20 0 0 0 10.4 17.55l88 48.17a19.89 19.89 0 0 0 19.2 0l88-48.17a20 20 0 0 0 10.4-17.55V80.19a20 20 0 0 0-10.4-17.55M128 36.57 200 76l-72 39.4L56 76ZM44 96.79l72 39.4v76.67l-72-39.42Zm96 116.07v-76.67l72-39.4v76.65Z"/></svg>