<svg viewBox="0 0 743 308"><defs><linearGradient id="a" x1=".498" x2=".502" y1="0" y2="1"><stop offset="0" stop-color="var(--token-83878271-40bd-4314-b766-4d665555aa78, rgb(255, 77, 0)) /* {&quot;name&quot;:&quot;Primary&quot;} */"/><stop offset="1" stop-color="var(--token-a72e40d5-b29d-41f2-bb9d-24392d1b3008, rgba(23, 23, 23, 0.7)) /* {&quot;name&quot;:&quot;Gray - 850&quot;} */"/></linearGradient></defs><path fill="url(#a)" d="M773.689 308H-57.609v-87.231H26.92l23.152-19.384h13.46l16.69-13.462h25.844l14.537-14h14.537l15.075 16.692h30.151l30.689-24.769h18.844L248.743 154h30.69l86.683-70.538h186.288L596.554 42h19.382l19.921-19.923h12.922l11.845 6.461h17.229l19.921-19.923h75.915Z"/><path fill="transparent" stroke="var(--token-83878271-40bd-4314-b766-4d665555aa78, rgb(255, 77, 0))" stroke-width="4.31" d="M-57.609 220.769H26.92l23.152-19.384h13.46l16.69-13.462h25.844l14.537-14h14.537l15.075 16.692h30.151l30.689-24.769h18.844L248.743 154h30.69l86.683-70.538h186.288L596.554 42h19.382l19.921-19.923h12.922l11.845 6.461h17.229l19.921-19.923h75.915"/></svg>