<svg xmlns="http://www.w3.org/2000/svg" color="var(--token-de954fd2-a975-4916-8b85-2e5f2acf6b9e, rgb(255, 255, 255))" style="user-select:none;width:100%;height:100%;display:inline-block;fill:var(--token-de954fd2-a975-4916-8b85-2e5f2acf6b9e, rgb(255, 255, 255));color:var(--token-de954fd2-a975-4916-8b85-2e5f2acf6b9e, rgb(255, 255, 255));flex-shrink:0" viewBox="0 0 256 256"><path d="M208 28H48a20 20 0 0 0-20 20v160a20 20 0 0 0 20 20h160a20 20 0 0 0 20-20V48a20 20 0 0 0-20-20M52 52h24v95.22a24 24 0 1 0 24 0V125l40 40v39H52Zm152 152h-40v-44a12 12 0 0 0-3.51-8.49L100 91V52h24v20a12 12 0 0 0 3.51 8.49l17.31 17.3a24 24 0 1 0 17-17L148 67V52h56Z"/></svg>