<svg xmlns="http://www.w3.org/2000/svg" color="var(--token-de954fd2-a975-4916-8b85-2e5f2acf6b9e, rgb(255, 255, 255))" style="user-select:none;width:100%;height:100%;display:inline-block;fill:var(--token-de954fd2-a975-4916-8b85-2e5f2acf6b9e, rgb(255, 255, 255));color:var(--token-de954fd2-a975-4916-8b85-2e5f2acf6b9e, rgb(255, 255, 255));flex-shrink:0" viewBox="0 0 256 256"><path d="M236 208a12 12 0 0 1-12 12H32a12 12 0 0 1-12-12V48a12 12 0 0 1 24 0v148h180a12 12 0 0 1 12 12m-120-60a16 16 0 1 0 16-16 16 16 0 0 0-16 16m-8-40a16 16 0 1 0-16-16 16 16 0 0 0 16 16m-32 72a16 16 0 1 0-16-16 16 16 0 0 0 16 16m96-48a16 16 0 1 0-16-16 16 16 0 0 0 16 16m24-40a16 16 0 1 0-16-16 16 16 0 0 0 16 16m-24 72a16 16 0 1 0 16-16 16 16 0 0 0-16 16"/></svg>